<?xml version="1.0" encoding="UTF-8" standalone="no"?>
<svg
   xmlns:svg="http://www.w3.org/2000/svg"
   xmlns="http://www.w3.org/2000/svg"
   version="1.1"
   width="575.86176"
   height="197.8877"
   id="svg4656">
  <defs
     id="defs4658" />
  <g
     transform="translate(-62.06913,-433.41833)"
     id="layer1">
    <path
       d="m 605.19182,591.17738 4.30134,0 17.5692,30.37576 0.0975,0 0,-30.37576 3.41116,0 0,34.5341 -4.6002,0 -17.2703,-29.78445 -0.0975,0 0,29.78445 -3.41116,0 0,-34.5341 z m -21.66391,-0.59452 c 10.38297,0 15.28858,8.50522 15.18464,17.86159 -0.0908,10.59088 -5.23696,17.86158 -15.18464,17.86158 -9.94762,0 -15.08714,-7.2707 -15.19757,-17.86158 -0.0908,-9.35637 4.80161,-17.86159 15.19757,-17.86159 m -11.77341,17.86159 c 0,7.32268 3.65807,14.89225 11.77341,14.89225 8.11537,0 11.77344,-7.56957 11.77344,-14.89225 0,-7.32266 -3.65807,-14.89223 -11.77344,-14.89223 -8.11534,0 -11.77341,7.56957 -11.77341,14.89223 m -22.91078,2.62303 -12.81306,-19.88878 3.95697,0 10.54543,16.87397 10.83129,-16.87397 3.71003,0 -12.81301,19.88878 0,14.64534 -3.41767,0 0,-14.64534 z m -25.93144,-19.8901 3.41767,0 0,31.56477 13.8526,0 0,2.96933 -17.27027,0 0,-34.5341 z m -38.19095,0 16.92596,0 0,2.96933 -13.50823,0 0,12.31925 12.81304,0 0,2.96936 -12.81304,0 0,13.30683 14.09954,0 0,2.96933 -17.51724,0 0,-34.5341 z m -33.2898,0 8.55714,0 c 12.37127,0 17.27034,7.12126 17.27034,17.21832 0,12.51417 -8.36225,17.31578 -19.7913,17.31578 l -6.03618,0 0,-34.5341 z m 3.41116,31.56477 2.81992,0 c 9.79823,0 16.17872,-3.95697 16.17872,-14.54134 0,-10.54541 -6.28309,-14.0541 -13.99556,-14.0541 l -5.00308,0 0,28.59544 z m -42.54613,-1.43268 c 2.0272,1.2865 4.40531,2.02723 7.62155,2.02723 4.25583,0 7.76449,-2.17668 7.76449,-7.07578 0,-6.77685 -15.83439,-7.61507 -15.83439,-16.67254 0,-5.54234 4.85363,-9.00552 10.93523,-9.00552 1.68289,0 4.40534,0.24694 6.78339,1.13706 l -0.54577,3.11881 c -1.53339,-0.83819 -3.95697,-1.28651 -6.28304,-1.28651 -3.56718,0 -7.47861,1.48791 -7.47861,5.9387 0,6.92633 15.8408,6.97177 15.8408,17.0689 0,6.97825 -5.99065,9.74621 -11.33806,9.74621 -3.35921,0 -5.97769,-0.69525 -7.81647,-1.48146 l 0.35099,-3.5151 z m -32.49978,-30.13209 4.30785,0 17.56269,30.37576 0.0975,0 0,-30.37576 3.41117,0 0,34.5341 -4.60021,0 -17.2703,-29.78445 -0.0908,0 0,29.78445 -3.4177,0 0,-34.5341 z m -24.29342,0 16.91942,0 0,2.96933 -13.50175,0 0,12.31925 12.81304,0 0,2.96936 -12.81304,0 0,13.30683 14.09954,0 0,2.96933 -17.51721,0 0,-34.5341 z m 210.14613,-53.35862 22.93608,0 44.34531,0 c 0,16.99091 -14.7818,25.48313 -44.34531,25.48313 l -128.44222,0 0,-25.48313 105.50614,0 z m -61.15432,-99.39844 19.8758,0 108.55991,0 0,25.48958 -108.55991,0 -64.22762,0 c 0,-16.99091 14.78828,-25.48958 44.35182,-25.48958 m 128.43571,74.42214 -172.78753,0 0,-24.97633 172.78753,0 0,24.97633 z m -369.63264,-74.42413 41.79181,0 22.94261,0 44.34535,0 19.86925,0 c 29.22568,0 43.83203,8.50522 43.83203,25.48964 l -43.83203,0 -64.2146,0 -64.73442,0 0,-25.48964 z m 0,49.44585 44.85212,0 0,24.97635 -44.85212,0 0,-24.97635 z m 44.85212,49.95265 0,25.48311 -44.85212,0.25978 0,-25.743 44.85212,0 z m 84.0969,-49.95265 44.09193,0 0,24.97635 -44.09193,0 0,-24.97635 z m 0,49.95265 43.83203,0 0,25.48311 -43.83203,0 0,-25.48311 z m -325.17813,-99.3985 44.85209,0 19.88231,0 44.3388,0 19.88228,0 43.82554,0 0,25.48964 -43.82554,0 -64.22108,0 -64.7344,0 0,-25.48964 z m 0,74.4222 0,-24.97635 44.85209,0 19.88231,0 44.3388,0 19.88228,0 44.08544,0 0,24.97635 -44.08544,0 -64.22108,0 -64.7344,0 z m 44.85209,24.9763 19.88231,0 44.3388,0 19.88228,0 43.82554,0 0,25.48311 -43.82554,0 -64.22108,0 -64.7344,0 0,-25.48311 44.85209,0 z"
       id="path666"
       style="fill:#1a171b;fill-opacity:1;fill-rule:nonzero;stroke:none" />
  </g>
</svg>
